<svg width="643" height="575" viewBox="0 0 643 575" fill="none" xmlns="http://www.w3.org/2000/svg">
<rect width="643" height="575" fill="white"/>
<path d="M419.838 276.712L372.653 249.197L320.717 276.712V437.494H419.838V276.712Z" fill="#EDF2F6" stroke="#EDF2F6" stroke-linecap="round" stroke-linejoin="round"/>
<rect x="368.786" y="286.16" width="11.9344" height="22.1007" rx="2" fill="#C5DEEA"/>
<rect x="368.786" y="324.726" width="11.9344" height="22.1007" rx="2" fill="#C5DEEA"/>
<rect x="368.786" y="363.291" width="11.9344" height="22.1007" rx="2" fill="#C5DEEA"/>
<path d="M327.955 140.406H214.468V436.997H327.955V140.406Z" fill="#EDF2F6" stroke="#EDF2F6"/>
<path d="M219.827 212.972L172.484 174.993L120.374 212.972V434.897H219.827V212.972Z" fill="#EDF2F6" stroke="#EDF2F6" stroke-linecap="round" stroke-linejoin="round"/>
<rect x="165.282" y="226.013" width="11.1494" height="30.5052" rx="2" fill="#C5DEEA"/>
<rect x="165.282" y="279.244" width="11.1494" height="30.5052" rx="2" fill="#C5DEEA"/>
<rect x="165.282" y="332.476" width="11.1494" height="30.5052" rx="2" fill="#C5DEEA"/>
<path d="M256.014 248.103H364.97V445.296H256.014V248.103Z" stroke="#749BD4" stroke-width="2"/>
<path d="M257.707 248.821H361.249V445.296H257.707V248.821Z" stroke="#749BD4" stroke-width="2"/>
<path d="M258.998 324.737H362.54V445.296H258.998V324.737Z" fill="#749BD4" stroke="#749BD4" stroke-width="5"/>
<path d="M259.964 358.827H307.397V330.207H306.398V324.681H259.964V330.207H257.282V349.268H259.964V358.827Z" fill="#EDF2F6" stroke="#EDF2F6"/>
<path d="M260.017 321.422H307.45V292.801H306.451V287.276H260.017V292.801H257.335V311.863H260.017V321.422Z" fill="#EDF2F6"/>
<path d="M259.911 283.961H307.345V255.34H306.346V249.815H259.911V255.34H257.229V274.402H259.911V283.961Z" fill="#EDF2F6" stroke="#EDF2F6"/>
<path d="M307.45 249.917V359.6" stroke="#749BD4"/>
<path d="M258.595 285.33H324.089M324.089 285.33L348.663 266.168H360.535V303.564M324.089 285.33L347.337 303.564M360.535 303.564H347.337M360.535 303.564V322.945H324.089L347.337 303.564" stroke="#749BD4"/>
<rect x="317.896" y="327.389" width="12.4869" height="22.7637" fill="#423AA9"/>
<rect x="342.427" y="327.389" width="12.4869" height="22.7637" fill="#423AA9"/>
<rect x="317.896" y="366.175" width="12.4869" height="22.7637" fill="#423AA9"/>
<rect x="342.427" y="366.175" width="12.4869" height="22.7637" fill="#423AA9"/>
<rect x="317.896" y="404.962" width="12.4869" height="22.7637" fill="#423AA9"/>
<rect x="342.427" y="404.962" width="12.4869" height="22.7637" fill="#423AA9"/>
<rect x="269.494" y="366.175" width="10.4978" height="58.3458" fill="#423AA9"/>
<rect x="282.976" y="366.175" width="10.6083" height="58.3458" fill="#423AA9"/>
<path d="M131.591 316.549C140.303 282.926 110.654 276.545 110.374 318.372C104.12 300.717 81.9094 332.546 103.247 352.518C65.1917 370.825 143.157 433.788 134.796 355.501C163.569 341.62 160.477 330.831 134.796 337.545C157.348 319.11 150.918 303.53 131.591 316.549Z" fill="#37BFB5" stroke="#37BFB5"/>
<path d="M119.547 321.576V392.188" stroke="white"/>
<path d="M119.547 339.146C128.468 336.88 132.598 334.35 135.736 323.731" stroke="white"/>
<path d="M119.602 360.153C128.774 359.386 133.264 357.571 138.107 347.613" stroke="white"/>
<path d="M119.594 356.741C111.031 350.292 107.756 345.528 109.317 331.466" stroke="white"/>
<path d="M119.602 382.961C110.696 377.257 107.069 373.338 107.225 362.849" stroke="white"/>
<path d="M405.749 330.361C410.059 274.79 372.716 280.38 387.35 324.726C375.229 324.236 373.348 330.123 379.67 351.633C350.77 407.582 462.922 380.138 405.749 330.361Z" fill="#31A59A" stroke="#31A59A"/>
<path d="M388.629 314.652C406.339 334.316 390.81 369.814 403.778 396.979" stroke="white"/>
<path d="M396.134 330.361C399.623 327.884 400.936 325.658 401.825 319.808" stroke="white"/>
<path d="M397.296 363.821C404.975 362.032 408.545 359.318 413.246 350.621" stroke="white"/>
<path d="M398.114 352.815C390.218 348.778 387.052 344.836 384.252 334.027" stroke="white"/>
<path d="M441.986 338.305C450.084 319.324 431.987 313.099 428.535 337.595C425.995 326.721 409.571 343.519 421.39 357.015C390.489 382.146 454.602 399.969 440.779 367.656C459.913 361.93 458.985 349.098 442.351 350.882C457.94 341.965 455.128 332.292 441.986 338.305Z" fill="#20877A" stroke="#20877A"/>
<path d="M434.037 340.242L428.506 381.637" stroke="white"/>
<path d="M431.22 364.372C435.997 363.157 439.794 362.289 445.475 357.545" stroke="white"/>
<path d="M432.896 346.884C431.567 340.569 429.453 338.394 433.596 332.129" stroke="white"/>
<path d="M528.685 381.414V433.129L572.665 428.93C571.328 422.389 569.58 419.16 559.515 416.443C556.404 389.752 546.283 386.994 528.685 381.414Z" fill="#31A59A" stroke="#31A59A"/>
<path d="M301.766 443.903C323.166 365.023 354.741 362.933 399.174 411.526C419.068 378.442 448.429 361.343 470.449 381.635C473.173 360.018 521.185 347.425 531.115 381.635C533.387 390.584 533.498 395.858 531.115 405.835C552.348 405.929 555.86 412.266 552.829 431.361C573.162 414.178 584.157 436.389 573.162 443.903H301.766Z" fill="#37BFB5" stroke="#37BFB5"/>
<path d="M329.978 433.509C356.301 412.604 376.49 407.92 383.064 437.198C420.134 398.49 449.778 409.306 456.978 429.093" stroke="white" stroke-width="2"/>
<path d="M272.538 412.023C238.85 412.023 211.54 439.333 211.54 473.021H333.536C333.536 439.333 306.226 412.023 272.538 412.023Z" fill="url(#paint0_linear)"/>
<circle cx="279.719" cy="426.941" r="2.15208" fill="#F8C481" stroke="#F8C481"/>
<circle cx="271.874" cy="419.316" r="2.15208" fill="#F8C481" stroke="#F8C481"/>
<circle cx="286.957" cy="421.913" r="0.660286" fill="#F8C481" stroke="#F8C481"/>
<circle cx="268.062" cy="429.538" r="0.660286" fill="#F8C481" stroke="#F8C481"/>
<circle cx="256.68" cy="428.101" r="0.660286" fill="#F8C481" stroke="#F8C481"/>
<circle cx="241.983" cy="423.129" r="0.660286" fill="#F8C481" stroke="#F8C481"/>
<circle cx="259.607" cy="421.305" r="1.26805" fill="#F8C481" stroke="#F8C481"/>
<path d="M347.293 427.162C321.996 427.162 301.489 447.669 301.489 472.966H393.097C393.097 447.669 372.59 427.162 347.293 427.162Z" fill="url(#paint1_linear)"/>
<path d="M107.224 416.665C80.432 416.665 58.7129 434.945 58.7129 457.496H155.735C155.735 434.945 134.016 416.665 107.224 416.665Z" fill="#FDDCAF"/>
<path d="M149.83 456.996C150.148 435.027 171.437 417.165 197.837 417.165C224.237 417.165 245.526 435.027 245.845 456.996H149.83Z" fill="#FAD199" stroke="#FAD199"/>
<path d="M424.093 419.924C388.085 419.924 389.837 437.66 365.194 442.467H499.401C451.055 433.13 460.1 419.924 424.093 419.924Z" fill="url(#paint2_linear)"/>
<circle cx="443.044" cy="434.566" r="2.15208" fill="#F8C481" stroke="#F8C481"/>
<circle cx="435.198" cy="426.942" r="2.15208" fill="#F8C481" stroke="#F8C481"/>
<circle cx="450.281" cy="429.538" r="0.660286" fill="#F8C481" stroke="#F8C481"/>
<circle cx="431.386" cy="437.163" r="0.660286" fill="#F8C481" stroke="#F8C481"/>
<circle cx="420.004" cy="435.727" r="0.660286" fill="#F8C481" stroke="#F8C481"/>
<circle cx="405.307" cy="430.754" r="0.660286" fill="#F8C481" stroke="#F8C481"/>
<circle cx="422.931" cy="428.931" r="1.26805" fill="#F8C481" stroke="#F8C481"/>
<rect x="47" y="442.743" width="498.923" height="30.2779" fill="white"/>
<path d="M502.054 442.301H560.621L558.689 438.323H503.434L502.054 442.301Z" fill="#423AA9" stroke="#423AA9"/>
<path d="M520.286 438.323V434.013" stroke="#423AA9"/>
<path d="M543.492 438.323V434.013" stroke="#423AA9"/>
<rect x="550.291" y="407.551" width="19.6641" height="25.9628" stroke="#423AA9"/>
<path d="M550.012 411.029H569.571" stroke="#423AA9"/>
<path d="M549.791 414.786H569.35" stroke="#423AA9"/>
<path d="M550.896 418.543H570.455" stroke="#423AA9"/>
<path d="M550.675 422.3H570.234" stroke="#423AA9"/>
<path d="M550.454 426.057H570.013" stroke="#423AA9"/>
<path d="M550.232 429.814H569.792" stroke="#423AA9"/>
<rect x="513.493" y="418.269" width="35.7976" height="15.244" stroke="#423AA9"/>
<rect x="502.554" y="166.764" width="9.93984" height="266.75" stroke="#423AA9"/>
<path d="M513.546 93V142.561H502.496L513.546 93ZM513.546 93L557.748 161.512M513.546 93L543.99 156.981L547.305 158.031V418.488M557.748 161.512H560.179M557.748 161.512L543.99 157.041M560.179 161.512V407.382M560.179 161.512H540.288M515.757 161.512V147.865L529.873 152.453M515.757 161.512H538.631M515.757 161.512L527.083 152.453M543.99 157.041L540.288 161.512M543.99 157.041L529.873 152.453M540.288 161.512H538.631M538.631 161.512L529.873 152.453" stroke="#423AA9"/>
<path d="M352.487 147.865L513.601 93.0552L219.772 147.865H352.487Z" stroke="#423AA9"/>
<path d="M508.959 114.217L513.711 124.88V131.787L498.793 161.567L485.919 149.025H483.378L469.399 161.567L455.973 149.025L440.171 161.567L425.142 149.025L409.727 161.567L394.809 149.025L380.665 161.567L365.581 149.025L350.166 161.567L335.856 149.025L320.772 161.567L306.075 149.025L291.765 161.567L276.129 149.025L260.327 161.567L246.182 149.025L231.32 161.567L217.341 147.92" stroke="#423AA9"/>
<path d="M502.606 433.627L512.331 411.692L502.606 384.342L512.331 355.943L502.606 328.814L512.331 301.63L502.606 272.678L512.331 245.715L502.606 216.929L512.331 189.414L502.606 165.656" stroke="#423AA9"/>
<rect x="499.128" y="143.116" width="16.6805" height="22.6477" stroke="#423AA9"/>
<path d="M498.738 147.92V161.567H200.932L217.065 147.92H498.738Z" stroke="#423AA9"/>
<path d="M263.145 165.822L260.327 161.567H290.605L288.837 165.822H263.145Z" fill="#423AA9" stroke="#423AA9"/>
<path d="M277.345 166.706V213.338M277.345 213.338L299.556 225.162M277.345 213.338L258.117 225.162" stroke="#423AA9"/>
<rect x="251.379" y="224.336" width="54.5832" height="38.3392" fill="#749BD4" stroke="#749BD4"/>
<rect x="264.803" y="230.577" width="10.7188" height="13.9234" fill="#EDF2F6"/>
<rect x="278.174" y="230.577" width="11.1608" height="13.9234" fill="#EDF2F6"/>
<rect x="264.803" y="245.716" width="10.7188" height="6.74071" fill="#EDF2F6"/>
<rect x="278.174" y="245.716" width="11.1608" height="6.74071" fill="#EDF2F6"/>
<path d="M47 442.743L594.655 443.019" stroke="#F8C481" stroke-width="10"/>
<path d="M333.536 385.447C320.874 393.026 317.789 390.751 317.789 390.751C317.789 390.751 324.53 383.182 329.226 378.43C333.923 373.678 333.536 378.43 331.491 379.977C329.447 381.524 330.291 383.391 333.536 381.579C336.78 379.768 346.198 377.868 333.536 385.447Z" fill="#E65E5C" stroke="#E65E5C" stroke-linecap="round" stroke-linejoin="round"/>
<path d="M297.125 396.221V385.337C301.561 380.454 300.931 381.192 310.22 375.944C319.508 370.696 326.749 375.436 316.408 378.872C306.066 382.308 314.187 387.181 319.889 385.337C337.707 365.951 332.152 396.157 297.125 396.221Z" fill="#FF9492" stroke="#FF9492"/>
<path d="M211.927 402.299L151.481 412.189L131.204 479.873L220.215 464.568L211.927 402.299Z" stroke="#F9B621"/>
<path d="M210.986 403.68L122.5 428L130.153 481.199L219.827 467.33L210.986 403.68Z" fill="#E65E5C" stroke="#E65E5C"/>
<path d="M154.851 330.14C162.374 323.629 167.271 321.467 174.079 317.985L196.843 323.786C217.345 333.013 221.728 338.707 224.358 351.467C231.375 357.876 226.679 381.414 243.751 381.414C266.215 381.137 277.782 381.957 296.517 385.171V396.387C274.116 402.303 218.004 412.741 211.042 401.967L154.851 419.15C167.494 447.531 161.573 433.339 170.598 452.578L161.371 460.092C142.554 443.721 133.678 433.113 119.545 412.741C111.903 405.063 109.599 399.746 115.457 385.171C122.66 366.656 125.589 359.053 129.38 349.091C133.794 334.42 139.692 330.695 154.851 330.14Z" fill="white"/>
<path d="M222.41 409.04C224.833 388.922 224.5 377.649 223.458 357.545C220.109 379.433 218.351 392.306 213.971 409.04H222.41Z" fill="#EDF2F6" stroke="#EDF2F6" stroke-linecap="round" stroke-linejoin="round"/>
<path d="M151.093 407.658C157.503 388.236 160.919 376.686 162.696 351.799C154.566 370.972 150.095 378.728 144.905 387.491C147.944 389.315 148.01 392.476 144.905 394.95C147.674 398.034 149.142 400.213 151.093 407.658Z" fill="#EDF2F6" stroke="#EDF2F6" stroke-linecap="round" stroke-linejoin="round"/>
<path d="M174.962 319.2C177.892 314.611 179.133 311.332 181.04 304.945L196.952 315.388V327.101C197.752 330.676 196.632 331.619 193.803 332.737C186.485 327.461 182.37 324.5 174.962 319.2Z" fill="#FF9492" stroke="#FF9492"/>
<path d="M197.173 314.338V328.704C184.448 322.298 179.59 317.36 183.194 306.051L197.173 314.338Z" fill="#E65E5C" stroke="#E65E5C"/>
<path d="M198.074 334.472L201.038 338.387C203.789 342.02 209.572 340.316 209.914 335.773C210.032 334.209 209.401 332.682 208.214 331.657L204.497 328.449C201.629 325.972 197.177 328.01 197.177 331.8C197.177 332.765 197.492 333.703 198.074 334.472Z" fill="#EDF2F6"/>
<path d="M198.535 332.16L202.607 337.272C204.749 339.96 209.062 338.86 209.653 335.474C209.895 334.093 209.394 332.687 208.334 331.771L203.39 327.497C201.098 325.515 197.557 327.317 197.81 330.336C197.866 331.002 198.118 331.637 198.535 332.16Z" fill="white"/>
<path d="M199.439 405.669L195.461 338.649L198.445 335.168L197.229 330.085L196.179 331.466H191.704H182.643L189.66 338.649L187.56 409.316L199.439 405.669Z" fill="#423AA9" stroke="#423AA9"/>
<path d="M187.205 327.324L177.26 320.15C175.455 318.848 173.008 318.895 171.255 320.266L165.08 325.094C162.665 326.981 162.502 330.578 164.736 332.677L173.793 341.185C175.666 342.945 178.567 342.998 180.503 341.309L187.567 335.147C189.992 333.031 189.816 329.208 187.205 327.324Z" fill="#EDF2F6"/>
<path d="M186.483 326.934L177.257 320C175.422 318.621 172.883 318.669 171.101 320.116L165.281 324.842C162.777 326.875 162.825 330.713 165.379 332.683L174.116 339.42C175.864 340.768 178.291 340.81 180.084 339.522L186.394 334.993C189.136 333.026 189.181 328.962 186.483 326.934Z" fill="white"/>
<path d="M203.418 328.04C207.255 323.647 208.419 320.854 207.728 314.946" stroke="#F8B621" stroke-linecap="round" stroke-linejoin="round"/>
<path d="M212.259 309.531C204.358 327.157 182.81 308.813 180.379 302.901V281.187H210.712C216.237 289.309 216.072 299.641 212.259 309.531Z" fill="#FF9492" stroke="#FF9492" stroke-linecap="round" stroke-linejoin="round"/>
<path d="M200.489 282.513C215.231 284.279 220.048 282.185 222.811 273.231C215.209 273.75 211.932 272.072 208.114 265.054L166.454 285.497L173.526 295.553H186.566C187.346 289.813 187.272 286.595 186.566 280.856C190.601 285.534 193.408 287.331 200.489 287.375C201.094 285.477 201.084 284.412 200.489 282.513Z" fill="#002951" stroke="#002951" stroke-linecap="round" stroke-linejoin="round"/>
<path d="M184.302 278.148C193.531 289.274 177.324 311.063 188.446 322.074" stroke="#F9B621" stroke-linecap="round" stroke-linejoin="round"/>
<circle cx="178.72" cy="296.658" r="5.41467" fill="#FF9492"/>
<circle cx="178.721" cy="296.658" r="2.76259" fill="#E65E5C"/>
<path d="M209.993 260.854L165.902 286.325C160.777 271.961 161.487 264.204 174.632 253.893C187.729 246.897 195.495 248.731 209.993 260.854Z" fill="#F9B621" stroke="#F9B621"/>
<path d="M211.042 259.805C191.289 267.358 180.867 272.929 164.134 286.657C164.687 288.688 165.647 289.329 168.443 289.641C184.486 278.64 191.621 270.323 213.529 266.104C234.23 256.384 215.432 249.063 211.042 259.805Z" fill="#F8B621" stroke="#F8B621"/>
<path d="M183.638 272.071C174.229 273.592 169.099 274.172 164.024 267.54C162.352 276.53 162.569 280.65 166.786 284.945L183.638 272.071Z" fill="#E7A217" stroke="#E7A217"/>
<path d="M179.382 457.053C176.287 454.589 174.203 453.524 170.432 452.744L163.249 458.545C163.11 462.136 163.028 470.306 170.432 475.5C178.443 477.102 184.631 475.949 188.886 471.584C189.494 467.883 188.444 464.844 186.841 463.96C199.695 471.041 201.528 461.275 192.09 459.871C189.622 457.102 185.087 456.465 179.382 457.053Z" fill="#FF9492" stroke="#FF9492" stroke-linecap="round" stroke-linejoin="round"/>
<defs>
<linearGradient id="paint0_linear" x1="211.54" y1="473.021" x2="333.536" y2="473.021" gradientUnits="userSpaceOnUse">
<stop offset="0.265625" stop-color="#FDDCAF"/>
<stop offset="0.713542" stop-color="#F8C481"/>
</linearGradient>
<linearGradient id="paint1_linear" x1="301.489" y1="472.966" x2="393.097" y2="472.966" gradientUnits="userSpaceOnUse">
<stop offset="0.927083" stop-color="#FDDCAF"/>
</linearGradient>
<linearGradient id="paint2_linear" x1="364.476" y1="468.601" x2="494.87" y2="468.601" gradientUnits="userSpaceOnUse">
<stop offset="0.265625" stop-color="#FDDCAF"/>
<stop offset="0.713542" stop-color="#F8C481"/>
</linearGradient>
</defs>
</svg>
